<svg width="1335" height="464" viewBox="0 0 1335 464" fill="none" xmlns="http://www.w3.org/2000/svg">
<g clip-path="url(#clip0_1528_78849)">
<rect width="1335" height="464" fill="#CBECF5"/>
<mask id="mask0_1528_78849" style="mask-type:luminance" maskUnits="userSpaceOnUse" x="0" y="-1" width="1335" height="465">
<path d="M1335 -1H0V463.77H1335V-1Z" fill="white"/>
</mask>
<g mask="url(#mask0_1528_78849)">
<path d="M1335 -1H0V463.77H1335V-1Z" fill="#CBECF5"/>
<path d="M1307.95 -59.3989L1062.29 46.7896L1200.54 366.619L1446.2 260.431L1307.95 -59.3989Z" fill="#AEE1F5"/>
<path fill-rule="evenodd" clip-rule="evenodd" d="M1234.38 351.938L1096.13 32.1175L1097.97 31.3239L1236.22 351.144L1234.38 351.938Z" fill="#00ADFF"/>
<path fill-rule="evenodd" clip-rule="evenodd" d="M1335.72 4.8078L1090.06 111.011L1089.27 109.175L1334.93 2.97202L1335.72 4.8078Z" fill="#00ADFF"/>
<path fill-rule="evenodd" clip-rule="evenodd" d="M1342.71 20.9875L1097.05 127.181L1096.26 125.345L1341.92 19.1517L1342.71 20.9875Z" fill="#00ADFF"/>
<path fill-rule="evenodd" clip-rule="evenodd" d="M1349.7 37.1539L1104.05 143.357L1103.25 141.521L1348.91 35.3181L1349.7 37.1539Z" fill="#00ADFF"/>
<path fill-rule="evenodd" clip-rule="evenodd" d="M1356.69 53.3335L1111.03 159.527L1110.24 157.691L1355.9 51.4977L1356.69 53.3335Z" fill="#00ADFF"/>
<path fill-rule="evenodd" clip-rule="evenodd" d="M1363.69 69.4999L1118.03 175.703L1117.24 173.867L1362.89 67.6642L1363.69 69.4999Z" fill="#00ADFF"/>
<path fill-rule="evenodd" clip-rule="evenodd" d="M1370.68 85.6796L1125.02 191.873L1124.22 190.037L1369.88 83.8438L1370.68 85.6796Z" fill="#00ADFF"/>
<path fill-rule="evenodd" clip-rule="evenodd" d="M1377.67 101.859L1132.01 208.053L1131.21 206.217L1376.87 100.023L1377.67 101.859Z" fill="#00ADFF"/>
<path fill-rule="evenodd" clip-rule="evenodd" d="M1384.66 118.026L1139 224.219L1138.21 222.383L1383.87 116.19L1384.66 118.026Z" fill="#00ADFF"/>
<path fill-rule="evenodd" clip-rule="evenodd" d="M1391.65 134.205L1145.99 240.399L1145.2 238.563L1390.86 132.37L1391.65 134.205Z" fill="#00ADFF"/>
<path fill-rule="evenodd" clip-rule="evenodd" d="M1398.64 150.372L1152.99 256.574L1152.19 254.739L1397.85 148.536L1398.64 150.372Z" fill="#00ADFF"/>
<path fill-rule="evenodd" clip-rule="evenodd" d="M1405.63 166.551L1159.97 272.745L1159.18 270.909L1404.84 164.716L1405.63 166.551Z" fill="#00ADFF"/>
<path fill-rule="evenodd" clip-rule="evenodd" d="M1412.63 182.718L1166.97 288.92L1166.18 287.085L1411.83 180.882L1412.63 182.718Z" fill="#00ADFF"/>
<path fill-rule="evenodd" clip-rule="evenodd" d="M1419.62 198.897L1173.96 305.091L1173.16 303.255L1418.82 197.062L1419.62 198.897Z" fill="#00ADFF"/>
<path d="M766.733 253.818L791.58 247.828L773.854 174.293L733.233 184.084L758.508 249.494C759.783 252.799 763.305 254.645 766.743 253.817L766.733 253.818Z" fill="#FF6AA9"/>
<path d="M739.696 163.954L738.043 157.107L757.255 152.478L758.908 159.325C759.618 162.284 762.59 164.097 765.55 163.387C768.51 162.676 771.482 164.489 772.193 167.449L773.845 174.295L733.225 184.085L731.572 177.239C730.862 174.279 732.674 171.307 735.634 170.596C738.594 169.886 740.406 166.914 739.696 163.954Z" fill="#382A66"/>
<path d="M739.79 156.689L755.505 152.897L751.446 136.079C751.099 134.623 749.281 134.122 748.23 135.19L737.305 146.375L739.789 156.68L739.79 156.689Z" fill="#FFAACE"/>
<path d="M1282.54 94.3823L1026.18 171.23L1126.23 504.987L1382.59 428.139L1282.54 94.3823Z" fill="#FFF8E9"/>
<path fill-rule="evenodd" clip-rule="evenodd" d="M1161.54 494.407L1061.5 160.659L1063.42 160.085L1163.46 493.833L1161.54 494.407Z" fill="#CBECF5"/>
<path fill-rule="evenodd" clip-rule="evenodd" d="M1302.64 161.462L1046.27 238.307L1045.7 236.391L1302.06 159.546L1302.64 161.462Z" fill="#CBECF5"/>
<path fill-rule="evenodd" clip-rule="evenodd" d="M1307.7 178.344L1051.34 255.181L1050.77 253.265L1307.13 176.428L1307.7 178.344Z" fill="#CBECF5"/>
<path fill-rule="evenodd" clip-rule="evenodd" d="M1312.76 195.22L1056.4 272.057L1055.82 270.141L1312.18 193.304L1312.76 195.22Z" fill="#CBECF5"/>
<path fill-rule="evenodd" clip-rule="evenodd" d="M1317.82 212.102L1061.46 288.939L1060.88 287.023L1317.25 210.186L1317.82 212.102Z" fill="#CBECF5"/>
<path fill-rule="evenodd" clip-rule="evenodd" d="M1322.87 228.978L1066.51 305.815L1065.94 303.899L1322.3 227.062L1322.87 228.978Z" fill="#CBECF5"/>
<path fill-rule="evenodd" clip-rule="evenodd" d="M1327.94 245.852L1071.58 322.697L1071 320.782L1327.37 243.936L1327.94 245.852Z" fill="#CBECF5"/>
<path fill-rule="evenodd" clip-rule="evenodd" d="M1333 262.728L1076.63 339.573L1076.06 337.657L1332.42 260.812L1333 262.728Z" fill="#CBECF5"/>
<path fill-rule="evenodd" clip-rule="evenodd" d="M1338.05 279.604L1081.69 356.455L1081.12 354.54L1337.48 277.688L1338.05 279.604Z" fill="#CBECF5"/>
<path fill-rule="evenodd" clip-rule="evenodd" d="M1343.11 296.486L1086.75 373.331L1086.17 371.416L1342.54 294.57L1343.11 296.486Z" fill="#CBECF5"/>
<path fill-rule="evenodd" clip-rule="evenodd" d="M1348.17 313.362L1091.81 390.213L1091.24 388.298L1347.59 311.446L1348.17 313.362Z" fill="#CBECF5"/>
<path fill-rule="evenodd" clip-rule="evenodd" d="M1353.23 330.244L1096.87 407.081L1096.3 405.166L1352.66 328.328L1353.23 330.244Z" fill="#CBECF5"/>
<path fill-rule="evenodd" clip-rule="evenodd" d="M1358.29 347.12L1101.93 423.957L1101.35 422.042L1357.71 345.204L1358.29 347.12Z" fill="#CBECF5"/>
<path fill-rule="evenodd" clip-rule="evenodd" d="M1363.35 364.002L1106.99 440.84L1106.41 438.924L1362.77 362.086L1363.35 364.002Z" fill="#CBECF5"/>
<path fill-rule="evenodd" clip-rule="evenodd" d="M1368.4 380.878L1112.04 457.716L1111.47 455.8L1367.83 378.963L1368.4 380.878Z" fill="#CBECF5"/>
<path fill-rule="evenodd" clip-rule="evenodd" d="M1373.47 397.752L1117.11 474.598L1116.53 472.682L1372.9 395.837L1373.47 397.752Z" fill="#CBECF5"/>
<path fill-rule="evenodd" clip-rule="evenodd" d="M1378.53 414.628L1122.16 491.474L1121.59 489.558L1377.95 412.713L1378.53 414.628Z" fill="#CBECF5"/>
<path d="M734.742 429.76L783.872 478.89H973.582L735.792 427.83C734.672 427.59 733.932 428.95 734.742 429.76Z" fill="#8DCEF2"/>
<path d="M1006.04 485.86L739.222 428.56C735.242 427.7 732.702 423.78 733.562 419.8L810.392 61.9998L981.002 98.6398L1084.43 120.85L1069.72 189.33L1006.04 485.86Z" fill="#61B1E6"/>
<path d="M853.482 71.2498L775.102 436.27L738.692 428.45C735.002 427.66 732.652 424.02 733.442 420.33L810.392 61.9998L853.482 71.2498Z" fill="#1F7AD0"/>
<path d="M741.728 414.865L1008.96 472.252L1006.03 485.861L738.805 428.475C735.051 427.669 732.655 423.963 733.462 420.209C734.268 416.454 737.973 414.059 741.728 414.865Z" fill="#FDF7E4"/>
<path fill-rule="evenodd" clip-rule="evenodd" d="M741.836 414.371L1009.07 471.761L1008.86 472.739L741.626 415.349L741.836 414.371Z" fill="#0053B1"/>
<path fill-rule="evenodd" clip-rule="evenodd" d="M738.026 418.171L1005.26 475.561L1005.05 476.539L737.816 419.149L738.026 418.171Z" fill="#0053B1"/>
<path fill-rule="evenodd" clip-rule="evenodd" d="M734.227 421.982L1001.46 479.372L1001.25 480.349L734.017 422.959L734.227 421.982Z" fill="#0053B1"/>
<path fill-rule="evenodd" clip-rule="evenodd" d="M739.316 428.071L997.646 483.171L997.437 484.149L739.107 429.049L739.316 428.071Z" fill="#0053B1"/>
<path d="M994.474 174.647L898.727 154.085C891.076 152.442 883.541 157.313 881.898 164.964L875.647 194.071C874.004 201.722 878.875 209.257 886.526 210.9L982.274 231.461C989.925 233.104 997.46 228.234 999.103 220.582L1005.35 191.476C1007 183.824 1002.13 176.29 994.474 174.647Z" fill="#D9EFF2"/>
<path fill-rule="evenodd" clip-rule="evenodd" d="M1004.08 197.355L880.633 170.845L881.263 167.912L1004.71 194.422L1004.08 197.355Z" fill="#61B1E6"/>
<path fill-rule="evenodd" clip-rule="evenodd" d="M999.733 217.605L876.283 191.095L876.913 188.162L1000.36 214.672L999.733 217.605Z" fill="#61B1E6"/>
<path d="M812.115 6.60611L825.66 25.1458C828.727 29.3447 827.803 35.2335 823.612 38.2951L791.652 61.6433L767 27.899L798.96 4.55073C803.159 1.48324 809.048 2.40723 812.11 6.59803L812.115 6.60611Z" fill="#382A66"/>
<path d="M1049.79 279.502L1165.98 476.73L1186.63 464.568L1070.43 267.34L1049.79 279.502Z" fill="#FFCA3F"/>
<path d="M1060.12 273.419L1176.31 470.647L1186.63 464.566L1070.44 267.338L1060.12 273.419Z" fill="#EAB10D"/>
<path d="M1045.76 249L1055.26 256.056L1070.47 267.339L1049.82 279.505L1047.32 260.739L1045.76 249Z" fill="#FFEBBA"/>
<path d="M1045.76 249L1055.26 256.056L1047.32 260.739L1045.76 249Z" fill="#111833"/>
<path d="M1293.75 260.306L1211.31 286.453L1237.45 368.896L1319.9 342.749L1293.75 260.306Z" fill="#FFAACE"/>
<path d="M1293.75 260.306L1211.31 286.453L1216.64 303.268L1299.08 277.121L1293.75 260.306Z" fill="#F58BB8"/>
<path d="M1226.93 311.524L1244.91 306.974L1262.16 300.351L1279.99 295.849L1281.19 297.546L1280.9 300.28L1282.43 303.029L1264.45 307.576L1247.21 314.209L1229.36 318.714L1228.17 317.014L1228.46 314.26L1226.93 311.524Z" fill="#F58BB8"/>
<path d="M1279.36 317.146L1263.72 321.111L1248.71 326.878L1233.19 330.791L1232.05 329.003L1232.2 326.301L1230.76 323.611L1246.42 319.653L1261.41 313.879L1276.92 309.966L1278.08 311.751L1277.93 314.462L1279.36 317.146Z" fill="#F58BB8"/>
<path d="M1284.7 328.534L1273.47 331.384L1262.7 335.521L1251.59 338.331L1250.54 336.368L1250.43 333.747L1249.17 331.139L1260.4 328.289L1271.16 324.152L1282.27 321.354L1283.33 323.305L1283.44 325.935L1284.7 328.534Z" fill="#F58BB8"/>
<path d="M1249.09 153L1254.47 168.11L1268.96 161.23L1262.07 175.72L1277.19 181.09L1262.07 186.47L1268.96 200.96L1254.47 194.07L1249.09 209.19L1243.72 194.07L1229.23 200.96L1236.12 186.47L1221 181.09L1236.12 175.72L1229.23 161.23L1243.72 168.11L1249.09 153Z" fill="#FFCA3F"/>
<path d="M673.38 160.277L650 149.957L680.54 80.7566L718.77 97.6266L682.25 157.497C680.41 160.517 676.61 161.707 673.37 160.277H673.38Z" fill="#84BD61"/>
<path d="M715.99 76.6659L718.83 70.2259L700.75 62.2458L697.91 68.6859C696.68 71.4659 693.43 72.7258 690.65 71.4958C687.87 70.2659 684.62 71.5259 683.39 74.3059L680.55 80.7458L718.78 97.6159L721.62 91.1759C722.85 88.3959 721.59 85.1459 718.81 83.9159C716.03 82.6859 714.77 79.4359 716 76.6559L715.99 76.6659Z" fill="#382A66"/>
<path d="M717.18 69.4964L702.39 62.9664L709.38 47.1364C709.99 45.7664 711.86 45.5964 712.7 46.8364L721.46 59.7964L717.18 69.4964Z" fill="#95D86C"/>
<path fill-rule="evenodd" clip-rule="evenodd" d="M718.367 98.5414L680.137 81.6714L680.944 79.8417L719.174 96.7117L718.367 98.5414Z" fill="#111833"/>
<path d="M1193.77 436.072L1173.51 337.317L1172.89 334.314L1147.77 211.826L1171.24 207.013L1181.98 259.373L1217.24 431.248L1193.77 436.072Z" fill="#FF6740"/>
<path d="M1156.68 264.56L1184.4 258.878L1167.64 177.177L1139.93 182.858L1147.31 218.868C1147.86 221.544 1146.14 224.155 1143.46 224.702L1160.34 306.978L1165.19 305.98L1156.69 264.559L1156.68 264.56Z" fill="#382A66"/>
<path fill-rule="evenodd" clip-rule="evenodd" d="M1155.42 262.216L1138.95 183.063L1140.9 182.655L1157.37 261.808L1155.42 262.216Z" fill="#4F3B93"/>
<path d="M1180 259.774L1175.41 346.561L1158.51 264.186L1180 259.774Z" fill="#E65732"/>
</g>
</g>
<defs>
<clipPath id="clip0_1528_78849">
<rect width="1335" height="464" fill="white"/>
</clipPath>
</defs>
</svg>
