<svg xmlns="http://www.w3.org/2000/svg" xmlns:xlink="http://www.w3.org/1999/xlink" width="1080" zoomAndPan="magnify" viewBox="0 0 810 809.999993" height="1080" preserveAspectRatio="xMidYMid meet" version="1.0"><defs><g/><clipPath id="f8e4ac91e0"><path d="M 78.105469 283.5 L 729 283.5 L 729 736.214844 L 78.105469 736.214844 Z M 78.105469 283.5 " clip-rule="nonzero"/></clipPath><clipPath id="0333c8b3be"><path d="M 0.105469 0.5 L 651 0.5 L 651 453.214844 L 0.105469 453.214844 Z M 0.105469 0.5 " clip-rule="nonzero"/></clipPath><clipPath id="5bee496fe6"><rect x="0" width="651" y="0" height="454"/></clipPath><clipPath id="e22662aba1"><path d="M 36.644531 94 L 773.144531 94 L 773.144531 773.140625 L 36.644531 773.140625 Z M 36.644531 94 " clip-rule="nonzero"/></clipPath><clipPath id="68761a4384"><rect x="0" width="437" y="0" height="516"/></clipPath></defs><g clip-path="url(#f8e4ac91e0)"><g transform="matrix(1, 0, 0, 1, 78, 283)"><g clip-path="url(#5bee496fe6)"><g clip-path="url(#0333c8b3be)"><path fill="#ffffff" d="M 0.105469 0.5 L 650.882812 0.5 L 650.882812 453.214844 L 0.105469 453.214844 Z M 0.105469 0.5 " fill-opacity="1" fill-rule="nonzero"/></g></g></g></g><g clip-path="url(#e22662aba1)"><path fill="#6da7cc" d="M 92.695312 293.863281 L 717.300781 293.863281 L 717.300781 682.234375 C 717.300781 701.65625 701.539062 717.421875 682.113281 717.421875 L 127.882812 717.421875 C 108.457031 717.421875 92.695312 701.65625 92.695312 682.234375 Z M 107.082031 94.25 C 68.167969 94.25 36.644531 125.773438 36.644531 164.691406 L 36.644531 702.769531 C 36.644531 741.683594 68.167969 773.210938 107.082031 773.210938 L 702.914062 773.210938 C 741.828125 773.210938 773.351562 741.683594 773.351562 702.769531 L 773.351562 164.691406 C 773.351562 125.773438 741.828125 94.25 702.914062 94.25 L 635.023438 94.25 L 635.023438 151.085938 C 634.761719 184.117188 607.75 210.734375 574.722656 210.40625 C 542.019531 210.144531 515.597656 183.722656 515.335938 151.085938 L 515.335938 94.25 L 294.660156 94.25 L 294.660156 151.085938 C 294.660156 184.117188 267.847656 210.929688 234.816406 210.929688 C 201.722656 210.929688 174.972656 184.117188 174.90625 151.085938 L 174.90625 94.25 L 107.082031 94.25 " fill-opacity="1" fill-rule="nonzero"/></g><path fill="#6da7cc" d="M 602.714844 150.300781 L 602.714844 64.949219 C 602.714844 49.710938 590.351562 37.414062 575.113281 37.414062 C 559.941406 37.480469 547.710938 49.777344 547.644531 64.949219 L 547.644531 150.300781 C 547.710938 165.539062 560.070312 177.835938 575.246094 177.769531 C 590.417969 177.707031 602.714844 165.476562 602.714844 150.300781 " fill-opacity="1" fill-rule="nonzero"/><path fill="#6da7cc" d="M 262.351562 64.949219 C 262.285156 49.710938 249.925781 37.414062 234.75 37.480469 C 219.578125 37.480469 207.28125 49.777344 207.28125 64.949219 L 207.28125 150.300781 C 207.28125 165.539062 219.644531 177.835938 234.882812 177.769531 C 250.054688 177.707031 262.285156 165.476562 262.351562 150.300781 L 262.351562 64.949219 " fill-opacity="1" fill-rule="nonzero"/><g transform="matrix(1, 0, 0, 1, 186, 237)"><g clip-path="url(#68761a4384)"><g fill="#345e7d" fill-opacity="1"><g transform="translate(1.605323, 404.516478)"><g><path d="M 121.0625 0 L 24.53125 0 C 21.050781 0 19.3125 -1.609375 19.3125 -4.828125 L 19.3125 -25.34375 C 19.3125 -28.5625 21.050781 -30.171875 24.53125 -30.171875 L 55.109375 -30.171875 L 55.109375 -258.609375 L 24.53125 -258.609375 C 21.050781 -258.609375 19.3125 -260.21875 19.3125 -263.4375 L 19.3125 -283.953125 C 19.3125 -287.171875 21.050781 -288.78125 24.53125 -288.78125 L 121.0625 -288.78125 C 124.550781 -288.78125 126.296875 -287.171875 126.296875 -283.953125 L 126.296875 -263.4375 C 126.296875 -260.21875 124.550781 -258.609375 121.0625 -258.609375 L 90.09375 -258.609375 L 90.09375 -30.171875 L 121.0625 -30.171875 C 124.550781 -30.171875 126.296875 -28.5625 126.296875 -25.34375 L 126.296875 -4.828125 C 126.296875 -1.609375 124.550781 0 121.0625 0 Z M 121.0625 0 "/></g></g></g><g fill="#345e7d" fill-opacity="1"><g transform="translate(133.931107, 404.516478)"><g><path d="M 280.328125 -72.796875 C 281.671875 -71.722656 282.34375 -70.445312 282.34375 -68.96875 C 282.34375 -67.5 281.738281 -65.488281 280.53125 -62.9375 C 279.332031 -60.394531 277.320312 -57.046875 274.5 -52.890625 C 271.6875 -48.734375 266.660156 -43.035156 259.421875 -35.796875 C 252.179688 -28.554688 244.269531 -22.320312 235.6875 -17.09375 C 227.113281 -11.863281 215.785156 -7.238281 201.703125 -3.21875 C 187.628906 0.800781 172.546875 2.8125 156.453125 2.8125 C 117.304688 2.8125 84.660156 -10.859375 58.515625 -38.203125 C 32.378906 -65.554688 19.3125 -101.421875 19.3125 -145.796875 C 19.3125 -190.171875 32.515625 -225.492188 58.921875 -251.765625 C 85.335938 -278.046875 117.179688 -291.1875 154.453125 -291.1875 C 196.003906 -291.1875 226.164062 -276.84375 244.9375 -248.15625 L 244.546875 -283.953125 C 244.003906 -287.171875 245.609375 -288.78125 249.359375 -288.78125 L 271.890625 -288.78125 C 275.378906 -288.78125 277.125 -287.171875 277.125 -283.953125 L 277.125 -196.28125 C 277.125 -192.789062 275.378906 -191.046875 271.890625 -191.046875 L 246.546875 -191.046875 C 243.328125 -191.046875 241.71875 -192.789062 241.71875 -196.28125 L 241.71875 -199.890625 C 241.71875 -212.222656 233.335938 -225.023438 216.578125 -238.296875 C 199.828125 -251.578125 178.984375 -258.21875 154.046875 -258.21875 C 129.109375 -258.21875 106.648438 -248.363281 86.671875 -228.65625 C 66.691406 -208.945312 56.703125 -181.054688 56.703125 -144.984375 C 56.703125 -108.921875 66.757812 -80.898438 86.875 -60.921875 C 106.988281 -40.953125 130.582031 -30.96875 157.65625 -30.96875 C 186.882812 -30.96875 209.945312 -37.535156 226.84375 -50.671875 C 239.976562 -60.867188 249.628906 -71.191406 255.796875 -81.640625 C 257.941406 -85.671875 260.488281 -86.476562 263.4375 -84.0625 Z M 280.328125 -72.796875 "/></g></g></g></g></g></svg>