<svg xmlns="http://www.w3.org/2000/svg" xmlns:xlink="http://www.w3.org/1999/xlink" width="2160" zoomAndPan="magnify" viewBox="0 0 1620 404.99999" height="540" preserveAspectRatio="xMidYMid meet" version="1.0"><defs><g/><clipPath id="939c9ebc67"><path d="M 48.949219 149.894531 L 303.449219 149.894531 L 303.449219 322.8125 L 48.949219 322.8125 Z M 48.949219 149.894531 " clip-rule="nonzero"/></clipPath><clipPath id="a6f0ebeb2e"><path d="M 0.949219 0.894531 L 255.449219 0.894531 L 255.449219 173.8125 L 0.949219 173.8125 Z M 0.949219 0.894531 " clip-rule="nonzero"/></clipPath><clipPath id="07ab870ca9"><rect x="0" width="256" y="0" height="174"/></clipPath><clipPath id="517b4186f3"><path d="M 40.5 88 L 309.75 88 L 309.75 337.097656 L 40.5 337.097656 Z M 40.5 88 " clip-rule="nonzero"/></clipPath><clipPath id="f160910209"><rect x="0" width="1224" y="0" height="389"/></clipPath></defs><g clip-path="url(#939c9ebc67)"><g transform="matrix(1, 0, 0, 1, 48, 149)"><g clip-path="url(#07ab870ca9)"><g clip-path="url(#a6f0ebeb2e)"><path fill="#ffffff" d="M 0.949219 0.894531 L 255.597656 0.894531 L 255.597656 173.8125 L 0.949219 173.8125 Z M 0.949219 0.894531 " fill-opacity="1" fill-rule="nonzero"/></g></g></g></g><g clip-path="url(#517b4186f3)"><path fill="#6da7cc" d="M 60.988281 161.921875 L 289.308594 161.921875 L 289.308594 303.882812 C 289.308594 310.984375 283.546875 316.746094 276.445312 316.746094 L 73.851562 316.746094 C 66.75 316.769531 60.988281 311.007812 60.988281 303.882812 Z M 66.25 88.976562 C 52.023438 88.976562 40.5 100.5 40.5 114.703125 L 40.5 311.414062 C 40.5 325.617188 52.023438 337.140625 66.25 337.140625 L 284.046875 337.140625 C 298.273438 337.164062 309.796875 325.640625 309.796875 311.414062 L 309.796875 114.703125 C 309.796875 100.5 298.273438 88.976562 284.046875 88.976562 L 259.230469 88.976562 L 259.230469 109.730469 C 259.136719 121.828125 249.261719 131.535156 237.1875 131.4375 C 225.234375 131.34375 215.578125 121.683594 215.480469 109.730469 L 215.480469 88.976562 L 134.816406 88.976562 L 134.816406 109.730469 C 134.71875 121.828125 124.847656 131.535156 112.75 131.4375 C 100.820312 131.34375 91.160156 121.683594 91.066406 109.730469 L 91.066406 88.976562 L 66.25 88.976562 " fill-opacity="1" fill-rule="nonzero"/></g><path fill="#6da7cc" d="M 263.488281 267.425781 L 263.488281 290.449219 L 232.40625 290.449219 L 232.40625 267.425781 L 263.488281 267.425781 " fill-opacity="1" fill-rule="nonzero"/><path fill="#6da7cc" d="M 214.953125 267.425781 L 214.953125 290.449219 L 183.875 290.449219 L 183.875 267.425781 L 214.953125 267.425781 " fill-opacity="1" fill-rule="nonzero"/><path fill="#6da7cc" d="M 166.421875 267.425781 L 166.421875 290.449219 L 135.34375 290.449219 L 135.34375 267.425781 L 166.421875 267.425781 " fill-opacity="1" fill-rule="nonzero"/><path fill="#6da7cc" d="M 117.890625 267.425781 L 117.890625 290.449219 L 86.808594 290.449219 L 86.808594 267.425781 L 117.890625 267.425781 " fill-opacity="1" fill-rule="nonzero"/><path fill="#6da7cc" d="M 263.488281 227.835938 L 263.488281 250.855469 L 232.40625 250.855469 L 232.40625 227.835938 L 263.488281 227.835938 " fill-opacity="1" fill-rule="nonzero"/><path fill="#6da7cc" d="M 214.953125 227.835938 L 214.953125 250.855469 L 183.875 250.855469 L 183.875 227.835938 L 214.953125 227.835938 " fill-opacity="1" fill-rule="nonzero"/><path fill="#6da7cc" d="M 166.421875 227.835938 L 166.421875 250.855469 L 135.34375 250.855469 L 135.34375 227.835938 L 166.421875 227.835938 " fill-opacity="1" fill-rule="nonzero"/><path fill="#6da7cc" d="M 117.890625 227.835938 L 117.890625 250.855469 L 86.808594 250.855469 L 86.808594 227.835938 L 117.890625 227.835938 " fill-opacity="1" fill-rule="nonzero"/><path fill="#6da7cc" d="M 263.488281 188.242188 L 263.488281 211.265625 L 232.40625 211.265625 L 232.40625 188.242188 L 263.488281 188.242188 " fill-opacity="1" fill-rule="nonzero"/><path fill="#6da7cc" d="M 214.953125 188.242188 L 214.953125 211.265625 L 183.875 211.265625 L 183.875 188.242188 L 214.953125 188.242188 " fill-opacity="1" fill-rule="nonzero"/><path fill="#6da7cc" d="M 166.421875 188.242188 L 166.421875 211.265625 L 135.34375 211.265625 L 135.34375 188.242188 L 166.421875 188.242188 " fill-opacity="1" fill-rule="nonzero"/><path fill="#6da7cc" d="M 117.890625 188.242188 L 117.890625 211.265625 L 86.808594 211.265625 L 86.808594 188.242188 L 117.890625 188.242188 " fill-opacity="1" fill-rule="nonzero"/><path fill="#6da7cc" d="M 247.421875 109.46875 L 247.421875 78.242188 C 247.421875 72.671875 242.902344 68.179688 237.332031 68.203125 C 231.785156 68.203125 227.292969 72.695312 227.292969 78.242188 L 227.292969 109.46875 C 227.292969 115.011719 231.832031 119.53125 237.378906 119.507812 C 242.925781 119.507812 247.421875 115.011719 247.421875 109.46875 " fill-opacity="1" fill-rule="nonzero"/><path fill="#6da7cc" d="M 123.003906 78.242188 C 123.003906 72.671875 118.488281 68.179688 112.941406 68.179688 C 107.371094 68.203125 102.875 72.695312 102.875 78.242188 L 102.875 109.46875 C 102.875 115.011719 107.371094 119.53125 112.941406 119.53125 C 118.511719 119.507812 123.003906 115.011719 123.003906 109.46875 L 123.003906 78.242188 " fill-opacity="1" fill-rule="nonzero"/><g transform="matrix(1, 0, 0, 1, 359, 4)"><g clip-path="url(#f160910209)"><g fill="#345e7d" fill-opacity="1"><g transform="translate(0.401109, 304.832885)"><g><path d="M 91.453125 0 L 18.53125 0 C 15.894531 0 14.578125 -1.210938 14.578125 -3.640625 L 14.578125 -19.140625 C 14.578125 -21.566406 15.894531 -22.78125 18.53125 -22.78125 L 41.625 -22.78125 L 41.625 -195.34375 L 18.53125 -195.34375 C 15.894531 -195.34375 14.578125 -196.5625 14.578125 -199 L 14.578125 -214.484375 C 14.578125 -216.921875 15.894531 -218.140625 18.53125 -218.140625 L 91.453125 -218.140625 C 94.078125 -218.140625 95.390625 -216.921875 95.390625 -214.484375 L 95.390625 -199 C 95.390625 -196.5625 94.078125 -195.34375 91.453125 -195.34375 L 68.046875 -195.34375 L 68.046875 -22.78125 L 91.453125 -22.78125 C 94.078125 -22.78125 95.390625 -21.566406 95.390625 -19.140625 L 95.390625 -3.640625 C 95.390625 -1.210938 94.078125 0 91.453125 0 Z M 91.453125 0 "/></g></g></g><g fill="#345e7d" fill-opacity="1"><g transform="translate(109.164298, 304.832885)"><g><path d="M 173.171875 0 L 144.3125 0 C 135.601562 0 131.25 -4.253906 131.25 -12.765625 L 131.25 -92.65625 C 131.25 -104.40625 128.410156 -113.519531 122.734375 -120 C 117.066406 -126.488281 108.765625 -129.734375 97.828125 -129.734375 C 82.234375 -129.734375 70.082031 -123.351562 61.375 -110.59375 C 60.351562 -109.375 59.035156 -107.144531 57.421875 -103.90625 L 57.421875 -20.359375 L 73.515625 -20.359375 C 76.148438 -20.359375 77.46875 -19.140625 77.46875 -16.703125 L 77.46875 -3.640625 C 77.46875 -1.210938 76.148438 0 73.515625 0 L 15.5 0 C 12.863281 0 11.546875 -1.210938 11.546875 -3.640625 L 11.546875 -16.703125 C 11.546875 -19.140625 12.863281 -20.359375 15.5 -20.359375 L 32.203125 -20.359375 L 32.203125 -129.125 L 15.5 -129.125 C 12.863281 -129.125 11.546875 -130.335938 11.546875 -132.765625 L 11.546875 -145.828125 C 11.546875 -148.253906 12.863281 -149.46875 15.5 -149.46875 L 51.046875 -149.46875 C 53.671875 -149.46875 54.984375 -148.253906 54.984375 -145.828125 L 54.375 -125.171875 L 55.296875 -125.171875 C 65.828125 -142.796875 82.128906 -151.609375 104.203125 -151.609375 C 120.410156 -151.609375 133.070312 -146.847656 142.1875 -137.328125 C 151.300781 -127.804688 155.957031 -114.941406 156.15625 -98.734375 L 156.15625 -20.359375 L 173.171875 -20.359375 C 175.804688 -20.359375 177.125 -19.140625 177.125 -16.703125 L 177.125 -3.640625 C 177.125 -1.210938 175.804688 0 173.171875 0 Z M 173.171875 0 "/></g></g></g><g fill="#345e7d" fill-opacity="1"><g transform="translate(292.360539, 304.832885)"><g><path d="M 78.984375 2.125 C 65.421875 2.125 54.585938 -0.40625 46.484375 -5.46875 C 38.378906 -10.53125 33.316406 -15.289062 31.296875 -19.75 L 30.6875 -19.75 C 31.09375 -9.820312 31.296875 -4.554688 31.296875 -3.953125 C 31.296875 -1.316406 29.878906 0 27.046875 0 L 16.703125 0 C 14.078125 0 12.765625 -1.316406 12.765625 -3.953125 L 12.765625 -49.515625 C 12.765625 -52.148438 14.078125 -53.46875 16.703125 -53.46875 L 28.5625 -53.46875 C 31.394531 -53.46875 32.8125 -52.148438 32.8125 -49.515625 L 32.8125 -43.4375 C 34.832031 -37.363281 39.085938 -31.796875 45.578125 -26.734375 C 53.265625 -20.660156 62.882812 -17.625 74.4375 -17.625 C 97.125 -17.625 108.46875 -25.519531 108.46875 -41.3125 C 108.46875 -46.78125 105.328125 -51.1875 99.046875 -54.53125 C 92.765625 -57.875 85.113281 -60.660156 76.09375 -62.890625 C 67.082031 -65.117188 58.117188 -67.648438 49.203125 -70.484375 C 40.296875 -73.316406 32.703125 -77.921875 26.421875 -84.296875 C 20.148438 -90.679688 17.015625 -98.738281 17.015625 -108.46875 C 17.015625 -121.625 21.773438 -132.101562 31.296875 -139.90625 C 40.816406 -147.707031 52.96875 -151.609375 67.75 -151.609375 C 87.800781 -151.609375 102.179688 -145.734375 110.890625 -133.984375 L 111.5 -133.984375 C 111.09375 -141.273438 110.890625 -145.019531 110.890625 -145.21875 C 110.890625 -147.851562 112.207031 -149.171875 114.84375 -149.171875 L 124.5625 -149.171875 C 127.195312 -149.171875 128.515625 -147.851562 128.515625 -145.21875 L 128.515625 -103 C 128.515625 -100.363281 127.195312 -99.046875 124.5625 -99.046875 L 112.71875 -99.046875 C 109.882812 -99.046875 108.46875 -100.363281 108.46875 -103 L 108.46875 -107.25 C 108.46875 -112.71875 105.273438 -118.132812 98.890625 -123.5 C 92.515625 -128.863281 84.257812 -131.546875 74.125 -131.546875 C 64 -131.546875 56.097656 -129.421875 50.421875 -125.171875 C 44.753906 -120.921875 41.921875 -115.398438 41.921875 -108.609375 C 41.921875 -101.828125 45.109375 -96.5625 51.484375 -92.8125 C 57.867188 -89.0625 65.617188 -86.125 74.734375 -84 C 83.847656 -81.875 92.960938 -79.492188 102.078125 -76.859375 C 111.191406 -74.234375 118.9375 -69.878906 125.3125 -63.796875 C 131.695312 -57.722656 134.890625 -49.316406 134.890625 -38.578125 C 134.890625 -27.847656 130.28125 -18.378906 121.0625 -10.171875 C 111.851562 -1.972656 97.828125 2.125 78.984375 2.125 Z M 78.984375 2.125 "/></g></g></g><g fill="#345e7d" fill-opacity="1"><g transform="translate(436.669358, 304.832885)"><g><path d="M 113.015625 -15.5 C 113.828125 -14.6875 114.234375 -13.820312 114.234375 -12.90625 C 114.234375 -12 113.625 -10.9375 112.40625 -9.71875 C 103.5 -1.820312 92.3125 2.125 78.84375 2.125 C 65.375 2.125 54.332031 -2.28125 45.71875 -11.09375 C 37.113281 -19.90625 32.8125 -32.710938 32.8125 -49.515625 L 32.8125 -129.125 L 15.796875 -129.125 C 12.960938 -129.125 11.546875 -130.4375 11.546875 -133.0625 L 11.546875 -145.53125 C 11.546875 -148.15625 12.960938 -149.46875 15.796875 -149.46875 L 32.8125 -149.46875 L 32.8125 -180.15625 C 32.8125 -183 34.226562 -184.421875 37.0625 -184.421875 L 54.078125 -184.421875 C 56.710938 -184.421875 58.03125 -183 58.03125 -180.15625 L 58.03125 -149.46875 L 96.609375 -149.46875 C 99.441406 -149.46875 100.859375 -148.15625 100.859375 -145.53125 L 100.859375 -133.0625 C 100.859375 -130.4375 99.441406 -129.125 96.609375 -129.125 L 58.03125 -129.125 L 58.03125 -50.125 C 58.03125 -40 60.304688 -32.351562 64.859375 -27.1875 C 69.421875 -22.019531 75.5 -19.4375 83.09375 -19.4375 C 90.6875 -19.4375 96.410156 -21.363281 100.265625 -25.21875 C 102.285156 -27.039062 104.109375 -26.9375 105.734375 -24.90625 Z M 113.015625 -15.5 "/></g></g></g><g fill="#345e7d" fill-opacity="1"><g transform="translate(557.584924, 304.832885)"><g><path d="M 160.71875 0 L 134.28125 0 C 125.570312 0 121.21875 -4.253906 121.21875 -12.765625 L 121.21875 -28.25 L 120.609375 -28.25 C 105.828125 -7.789062 86.082031 2.4375 61.375 2.4375 C 46.789062 2.4375 34.835938 -1.359375 25.515625 -8.953125 C 16.203125 -16.554688 11.546875 -26.835938 11.546875 -39.796875 C 11.546875 -56.410156 18.785156 -68.613281 33.265625 -76.40625 C 47.742188 -84.207031 67.644531 -88.109375 92.96875 -88.109375 L 118.484375 -88.109375 L 118.484375 -91.75 C 118.484375 -117.070312 105.316406 -129.734375 78.984375 -129.734375 C 66.628906 -129.734375 57.71875 -128.566406 52.25 -126.234375 C 46.78125 -123.898438 42.878906 -122.023438 40.546875 -120.609375 C 38.222656 -119.191406 36.457031 -118.078125 35.25 -117.265625 C 32.207031 -114.835938 29.976562 -114.632812 28.5625 -116.65625 L 20.046875 -127.296875 C 18.628906 -128.921875 18.832031 -130.539062 20.65625 -132.15625 C 24.101562 -136.613281 31.191406 -140.96875 41.921875 -145.21875 C 52.660156 -149.476562 65.320312 -151.609375 79.90625 -151.609375 C 122.4375 -151.609375 143.703125 -131.351562 143.703125 -90.84375 L 143.703125 -20.359375 L 160.71875 -20.359375 C 163.144531 -20.359375 164.359375 -19.140625 164.359375 -16.703125 L 164.359375 -3.640625 C 164.359375 -1.210938 163.144531 0 160.71875 0 Z M 118.484375 -69.875 L 94.484375 -69.875 C 82.734375 -69.875 73.007812 -69.265625 65.3125 -68.046875 C 57.625 -66.835938 51.09375 -64.207031 45.71875 -60.15625 C 40.351562 -56.101562 37.671875 -50.53125 37.671875 -43.4375 C 37.671875 -36.351562 40.554688 -30.53125 46.328125 -25.96875 C 52.097656 -21.414062 59.644531 -19.140625 68.96875 -19.140625 C 88.613281 -19.140625 105.117188 -27.847656 118.484375 -45.265625 Z M 118.484375 -69.875 "/></g></g></g><g fill="#345e7d" fill-opacity="1"><g transform="translate(733.79359, 304.832885)"><g><path d="M 211.75 -54.984375 C 212.769531 -54.179688 213.28125 -53.222656 213.28125 -52.109375 C 213.28125 -50.992188 212.820312 -49.472656 211.90625 -47.546875 C 211 -45.617188 209.476562 -43.085938 207.34375 -39.953125 C 205.21875 -36.816406 201.421875 -32.515625 195.953125 -27.046875 C 190.484375 -21.578125 184.507812 -16.863281 178.03125 -12.90625 C 171.550781 -8.957031 162.992188 -5.460938 152.359375 -2.421875 C 141.722656 0.609375 130.332031 2.125 118.1875 2.125 C 88.613281 2.125 63.953125 -8.203125 44.203125 -28.859375 C 24.453125 -49.515625 14.578125 -76.601562 14.578125 -110.125 C 14.578125 -143.644531 24.550781 -170.328125 44.5 -190.171875 C 64.457031 -210.023438 88.507812 -219.953125 116.65625 -219.953125 C 148.050781 -219.953125 170.835938 -209.117188 185.015625 -187.453125 L 184.71875 -214.484375 C 184.3125 -216.921875 185.523438 -218.140625 188.359375 -218.140625 L 205.375 -218.140625 C 208.007812 -218.140625 209.328125 -216.921875 209.328125 -214.484375 L 209.328125 -148.265625 C 209.328125 -145.628906 208.007812 -144.3125 205.375 -144.3125 L 186.234375 -144.3125 C 183.804688 -144.3125 182.59375 -145.628906 182.59375 -148.265625 L 182.59375 -151 C 182.59375 -160.3125 176.257812 -169.976562 163.59375 -180 C 150.9375 -190.03125 135.191406 -195.046875 116.359375 -195.046875 C 97.523438 -195.046875 80.5625 -187.601562 65.46875 -172.71875 C 50.382812 -157.832031 42.84375 -136.765625 42.84375 -109.515625 C 42.84375 -82.273438 50.4375 -61.109375 65.625 -46.015625 C 80.8125 -30.929688 98.632812 -23.390625 119.09375 -23.390625 C 141.164062 -23.390625 158.582031 -28.351562 171.34375 -38.28125 C 181.269531 -45.976562 188.5625 -53.773438 193.21875 -61.671875 C 194.84375 -64.710938 196.769531 -65.320312 199 -63.5 Z M 211.75 -54.984375 "/></g></g></g><g fill="#345e7d" fill-opacity="1"><g transform="translate(957.092517, 304.832885)"><g><path d="M 160.71875 0 L 134.28125 0 C 125.570312 0 121.21875 -4.253906 121.21875 -12.765625 L 121.21875 -28.25 L 120.609375 -28.25 C 105.828125 -7.789062 86.082031 2.4375 61.375 2.4375 C 46.789062 2.4375 34.835938 -1.359375 25.515625 -8.953125 C 16.203125 -16.554688 11.546875 -26.835938 11.546875 -39.796875 C 11.546875 -56.410156 18.785156 -68.613281 33.265625 -76.40625 C 47.742188 -84.207031 67.644531 -88.109375 92.96875 -88.109375 L 118.484375 -88.109375 L 118.484375 -91.75 C 118.484375 -117.070312 105.316406 -129.734375 78.984375 -129.734375 C 66.628906 -129.734375 57.71875 -128.566406 52.25 -126.234375 C 46.78125 -123.898438 42.878906 -122.023438 40.546875 -120.609375 C 38.222656 -119.191406 36.457031 -118.078125 35.25 -117.265625 C 32.207031 -114.835938 29.976562 -114.632812 28.5625 -116.65625 L 20.046875 -127.296875 C 18.628906 -128.921875 18.832031 -130.539062 20.65625 -132.15625 C 24.101562 -136.613281 31.191406 -140.96875 41.921875 -145.21875 C 52.660156 -149.476562 65.320312 -151.609375 79.90625 -151.609375 C 122.4375 -151.609375 143.703125 -131.351562 143.703125 -90.84375 L 143.703125 -20.359375 L 160.71875 -20.359375 C 163.144531 -20.359375 164.359375 -19.140625 164.359375 -16.703125 L 164.359375 -3.640625 C 164.359375 -1.210938 163.144531 0 160.71875 0 Z M 118.484375 -69.875 L 94.484375 -69.875 C 82.734375 -69.875 73.007812 -69.265625 65.3125 -68.046875 C 57.625 -66.835938 51.09375 -64.207031 45.71875 -60.15625 C 40.351562 -56.101562 37.671875 -50.53125 37.671875 -43.4375 C 37.671875 -36.351562 40.554688 -30.53125 46.328125 -25.96875 C 52.097656 -21.414062 59.644531 -19.140625 68.96875 -19.140625 C 88.613281 -19.140625 105.117188 -27.847656 118.484375 -45.265625 Z M 118.484375 -69.875 "/></g></g></g><g fill="#345e7d" fill-opacity="1"><g transform="translate(1131.478288, 304.832885)"><g><path d="M 73.515625 0 L 15.5 0 C 12.863281 0 11.546875 -1.210938 11.546875 -3.640625 L 11.546875 -16.703125 C 11.546875 -19.140625 12.863281 -20.359375 15.5 -20.359375 L 32.203125 -20.359375 L 32.203125 -197.78125 L 15.5 -197.78125 C 12.863281 -197.78125 11.546875 -198.992188 11.546875 -201.421875 L 11.546875 -214.484375 C 11.546875 -216.921875 12.863281 -218.140625 15.5 -218.140625 L 49.21875 -218.140625 C 54.6875 -218.140625 57.421875 -215.609375 57.421875 -210.546875 L 57.421875 -20.359375 L 73.515625 -20.359375 C 76.148438 -20.359375 77.46875 -19.140625 77.46875 -16.703125 L 77.46875 -3.640625 C 77.46875 -1.210938 76.148438 0 73.515625 0 Z M 73.515625 0 "/></g></g></g></g></g></svg>